{"title":"2012 (2009) R5 XviD-Unicx Eng-subs","uid":5230965,"size":661185757,"categoryP":"video","categoryS":"movies","magnet":"?xt=urn:btih:34be08752cc1ec5c59ef558f65a28d20ffe9ad40&amp;dn=2012+%282009%29+R5+XviD-Unicx+Eng-subs&amp;tr=udp%3A%2F%2Ftracker.openbittorrent.com%3A80&amp;tr=udp%3A%2F%2Fopen.demonii.com%3A1337&amp;tr=udp%3A%2F%2Ftracker.coppersurfer.tk%3A6969&amp;tr=udp%3A%2F%2Fexodus.desync.com%3A6969","seeders":0,"leechers":0,"uploader":"unicx","files":2,"time":1261331318,"description":"Ripped to 630Mb with hardcoded english subs.\n\nManaged to get surprisinlgy good quality.\n\nSubs on all speeech, as I got a question on this earlier.\n\n\nBtw sorry for wrong info as it isn't a DVDR but an R5!\n\nIf you want good quality and a small file download this one =)\n\nSeed 'til death!\n\nCheers!\n\n/Unicx\n\nGeneral\nComplete name                    : 2012 (2009) DVDRip XviD-Unicx Eng-subs.avi\nFormat                           : AVI\nFormat/Info                      : Audio Video Interleave\nFile size                        : 631 MiB\nDuration                         : 2h 31mn\nOverall bit rate                 : 582 Kbps\nWriting application              : VirtualDubMod 1.5.10.2 (build 2540/release)\nWriting library                  : VirtualDub build 32661/release\n\nVideo\nID                               : 0\nFormat                           : MPEG-4 Visual\nFormat profile                   : Advanced Simple@L5\nFormat settings, BVOP            : Yes\nFormat settings, QPel            : No\nFormat settings, GMC             : No warppoints\nFormat settings, Matrix          : Default (H.263)\nMuxing mode                      : Packed bitstream\nCodec ID                         : XVID\nCodec ID/Hint                    : XviD\nDuration                         : 2h 31mn\nBit rate                         : 452 Kbps\nWidth                            : 570 pixels\nHeight                           : 242 pixels\nDisplay aspect ratio             : 2.35:1\nFrame rate                       : 25.000 fps\nResolution                       : 8 bits\nColorimetry                      : 4:2:0\nScan type                        : Progressive\nBits/(Pixel*Frame)               : 0.131\nStream size                      : 490 MiB (78%)\nWriting library                  : XviD 1.3.0.dev55\n\nAudio\nID                               : 1\nFormat                           : MPEG Audio\nFormat version                   : Version 1\nFormat profile                   : Layer 3\nMode                             : Joint stereo\nCodec ID                         : 55\nCodec ID/Hint                    : MP3\nDuration                         : 2h 31mn\nBit rate mode                    : Variable\nBit rate                         : 117 Kbps\nChannel(s)                       : 2 channels\nSampling rate                    : 48.0 KHz\nStream size                      : 127 MiB (20%)\nAlignment                        : Aligned on interleaves\nInterleave, duration             : 24 ms (0.60 video frame)\nInterleave, preload duration     : 163 ms\n","torrent":{"xt":"urn:btih:34be08752cc1ec5c59ef558f65a28d20ffe9ad40","amp;dn":"2012+%282009%29+R5+XviD-Unicx+Eng-subs","amp;tr":["udp%3A%2F%2Ftracker.openbittorrent.com%3A80","udp%3A%2F%2Fopen.demonii.com%3A1337","udp%3A%2F%2Ftracker.coppersurfer.tk%3A6969","udp%3A%2F%2Fexodus.desync.com%3A6969"],"infoHash":"34be08752cc1ec5c59ef558f65a28d20ffe9ad40","infoHashBuffer":{"type":"Buffer","data":[52,190,8,117,44,193,236,92,89,239,85,143,101,162,141,32,255,233,173,64]},"announce":[],"urlList":[]}}